<svg width="352" height="110" viewBox="0 0 352 110" fill="none" xmlns="http://www.w3.org/2000/svg">
<path d="M224 83.2174H234.993V68.4783H245.347C254.934 68.4783 260.175 62.0217 260.175 54.1957C260.175 46.3043 254.934 39.7174 245.347 39.7174H224V83.2174ZM248.99 54.1304C248.99 57.0652 246.817 58.9565 243.877 58.9565H234.993V49.1739H243.877C246.817 49.1739 248.99 51.1304 248.99 54.1304Z" fill="#FF7048"/>
<path d="M289.484 83.2174H302.075L293.383 67.2391C297.346 65.8043 301.883 61.7609 301.883 54.1957C301.883 46.1087 296.515 39.7174 287.056 39.7174H265.708V83.2174H276.702V68.4783H282.326L289.484 83.2174ZM290.699 54.0652C290.699 57.0652 288.27 58.9565 285.394 58.9565H276.702V49.1739H285.394C288.27 49.1739 290.699 51.0652 290.699 54.0652Z" fill="#FF7048"/>
<path d="M306.43 61.5C306.43 74.7391 316.209 84 329.247 84C342.285 84 352 74.7391 352 61.5C352 48.2609 342.285 39 329.247 39C316.209 39 306.43 48.2609 306.43 61.5ZM340.815 61.5C340.815 68.5435 336.277 74.087 329.247 74.087C322.152 74.087 317.615 68.5435 317.615 61.5C317.615 54.3913 322.152 48.913 329.247 48.913C336.277 48.913 340.815 54.3913 340.815 61.5Z" fill="#FF7048"/>
<path fill-rule="evenodd" clip-rule="evenodd" d="M52.5332 0L89 17.5116L85.9778 23.7616L52.5332 7.70135L20.0249 23.3121L6.96196 44.9556V103.062H88.4169V110H0V43.0299L15.1302 17.9612L52.5332 0Z" fill="#FF7048"/>
<path d="M41 77.0769C45.2892 81.2569 51.3068 84 59.9492 84C71.4083 84 77.7461 78.1872 77.7461 69.4354C77.7461 59.5733 68.0154 57.4833 60.9735 55.9811C56.2362 55.0668 53.6114 54.283 53.6114 51.9971C53.6114 50.103 55.0198 48.6009 58.6688 48.6009C62.4459 48.6009 67.1191 50.103 70.7041 53.1074L76.7218 45.074C72.1765 41.09 66.2229 39 59.373 39C48.426 39 42.3444 45.3353 42.3444 52.6502C42.3444 62.9695 52.2031 64.7983 59.245 66.2351C63.7902 67.2148 66.543 68.1945 66.543 70.6763C66.543 72.7663 64.2384 74.3991 60.4613 74.3991C54.6357 74.3991 49.8984 71.7867 46.8256 68.6517L41 77.0769Z" fill="white"/>
<path d="M112.28 83.2163H123.291V39.6531H112.28V55.9158H94.5472V39.6531H83.5361V83.2163H94.5472V65.7126H112.28V83.2163Z" fill="white"/>
<path d="M131.627 83.2163H162.931V73.746H142.638V65.9086H162.483V56.373H142.638V49.1234H162.931V39.6531H131.627V83.2163Z" fill="white"/>
<path d="M169.965 83.2163H187.954C201.333 83.2163 211 74.9216 211 61.402C211 47.8824 201.333 39.6531 187.89 39.6531H169.965V83.2163ZM180.976 73.4194V49.4499H187.954C195.764 49.4499 199.733 54.6749 199.733 61.402C199.733 67.8679 195.38 73.4194 187.89 73.4194H180.976Z" fill="white"/>
</svg>
