<svg width="107" height="42" viewBox="0 0 107 42" fill="none" xmlns="http://www.w3.org/2000/svg">
<path d="M48.88 15H49.78L51.68 8.33H50.76L49.29 13.89L47.76 8.33H47.07L45.54 13.89L44.06 8.33H43.14L45.04 15H45.94L47.41 9.62L48.88 15ZM53.5581 15H57.9281V14.26H54.3881V11.96H57.8581V11.22H54.3881V9.07H57.9281V8.33H53.5581V15ZM60.2015 15H63.2415C64.4615 15 65.1715 14.27 65.1715 13.2C65.1715 12.4 64.5815 11.67 63.8715 11.56C64.4815 11.43 65.0415 10.87 65.0415 10.03C65.0415 9.03 64.3315 8.33 63.1715 8.33H60.2015V15ZM61.0315 11.22V9.07H63.0315C63.7815 9.07 64.1815 9.55 64.1815 10.15C64.1815 10.76 63.7815 11.22 63.0315 11.22H61.0315ZM61.0315 14.26V11.96H63.0715C63.8915 11.96 64.3115 12.5 64.3115 13.11C64.3115 13.82 63.8515 14.26 63.0715 14.26H61.0315ZM67.0405 14.06C67.5905 14.68 68.4405 15.12 69.6005 15.12C71.4005 15.12 72.0605 14.13 72.0605 13.16C72.0605 11.76 70.8205 11.42 69.7305 11.13C68.8805 10.9 68.1105 10.7 68.1105 10.03C68.1105 9.4 68.6805 8.97 69.4805 8.97C70.2105 8.97 70.9105 9.22 71.4105 9.77L71.9105 9.16C71.3505 8.57 70.5605 8.23 69.5405 8.23C68.2305 8.23 67.2505 8.98 67.2505 10.08C67.2505 11.39 68.4405 11.69 69.5105 11.97C70.3905 12.21 71.2005 12.43 71.2005 13.23C71.2005 13.74 70.8205 14.38 69.6305 14.38C68.6905 14.38 67.9705 13.92 67.5305 13.43L67.0405 14.06ZM74.2499 15H75.0799V8.33H74.2499V15ZM79.2425 15H80.0725V9.07H82.1925V8.33H77.1325V9.07H79.2425V15ZM84.2456 15H88.6156V14.26H85.0756V11.96H88.5456V11.22H85.0756V9.07H88.6156V8.33H84.2456V15ZM94.4171 15H97.4571C98.6771 15 99.3871 14.27 99.3871 13.2C99.3871 12.4 98.7971 11.67 98.0871 11.56C98.6971 11.43 99.2571 10.87 99.2571 10.03C99.2571 9.03 98.5471 8.33 97.3871 8.33H94.4171V15ZM95.2471 11.22V9.07H97.2471C97.9971 9.07 98.3971 9.55 98.3971 10.15C98.3971 10.76 97.9971 11.22 97.2471 11.22H95.2471ZM95.2471 14.26V11.96H97.2871C98.1071 11.96 98.5271 12.5 98.5271 13.11C98.5271 13.82 98.0671 14.26 97.2871 14.26H95.2471ZM103.293 15H104.123V12.18L106.743 8.33H105.773L103.703 11.43L101.633 8.33H100.663L103.293 12.18V15Z" fill="white"/>
<path d="M68.0909 33.2961H71.4326V28.8157H74.58C77.4942 28.8157 79.0873 26.8531 79.0873 24.4741C79.0873 22.0753 77.4942 20.0731 74.58 20.0731H68.0909V33.2961ZM75.6874 24.4543C75.6874 25.3464 75.0268 25.9213 74.1331 25.9213H71.4326V22.9476H74.1331C75.0268 22.9476 75.6874 23.5424 75.6874 24.4543Z" fill="white"/>
<path d="M87.9967 33.2961H91.824L89.1818 28.439C90.3863 28.0029 91.7657 26.7738 91.7657 24.4741C91.7657 22.0159 90.1338 20.0731 87.2584 20.0731H80.7694V33.2961H84.111V28.8157H85.8207L87.9967 33.2961ZM88.3658 24.4345C88.3658 25.3464 87.6275 25.9213 86.7533 25.9213H84.111V22.9476H86.7533C87.6275 22.9476 88.3658 23.5225 88.3658 24.4345Z" fill="white"/>
<path d="M93.1477 26.6945C93.1477 30.7189 96.1202 33.534 100.084 33.534C104.047 33.534 107 30.7189 107 26.6945C107 22.6701 104.047 19.855 100.084 19.855C96.1202 19.855 93.1477 22.6701 93.1477 26.6945ZM103.6 26.6945C103.6 28.8355 102.221 30.5206 100.084 30.5206C97.9271 30.5206 96.5477 28.8355 96.5477 26.6945C96.5477 24.5336 97.9271 22.8683 100.084 22.8683C102.221 22.8683 103.6 24.5336 103.6 26.6945Z" fill="white"/>
<path fill-rule="evenodd" clip-rule="evenodd" d="M15.9689 8L27.054 13.3231L26.1353 15.223L15.9689 10.341L6.08712 15.0863L2.11628 21.6655V39.3285H26.8767V41.4375H0V21.0801L4.59924 13.4598L15.9689 8Z" fill="white"/>
<path d="M12.4631 31.4295C13.7669 32.7001 15.5961 33.534 18.2232 33.534C21.7065 33.534 23.633 31.767 23.633 29.1067C23.633 26.1088 20.6751 25.4735 18.5346 25.0169C17.0945 24.7389 16.2967 24.5007 16.2967 23.8058C16.2967 23.2301 16.7248 22.7734 17.834 22.7734C18.9821 22.7734 20.4027 23.2301 21.4925 24.1433L23.3217 21.7013C21.94 20.4903 20.1303 19.855 18.0481 19.855C14.7204 19.855 12.8717 21.7808 12.8717 24.0043C12.8717 27.1412 15.8686 27.6971 18.0091 28.1338C19.3908 28.4316 20.2276 28.7294 20.2276 29.4839C20.2276 30.1192 19.527 30.6155 18.3789 30.6155C16.608 30.6155 15.168 29.8214 14.2339 28.8684L12.4631 31.4295Z" fill="white"/>
<path d="M34.1306 33.2957H37.4777V20.0535H34.1306V24.997H28.7402V20.0535H25.3931V33.2957H28.7402V27.975H34.1306V33.2957Z" fill="white"/>
<path d="M40.0116 33.2957H49.5274V30.417H43.3587V28.0346H49.3912V25.136H43.3587V22.9323H49.5274V20.0535H40.0116V33.2957Z" fill="white"/>
<path d="M51.6654 33.2957H57.1337C61.2008 33.2957 64.1392 30.7743 64.1392 26.6647C64.1392 22.555 61.2008 20.0535 57.1142 20.0535H51.6654V33.2957ZM55.0125 30.3177V23.0315H57.1337C59.5078 23.0315 60.7143 24.6198 60.7143 26.6647C60.7143 28.6302 59.391 30.3177 57.1142 30.3177H55.0125Z" fill="white"/>
</svg>
